PathFileType  4	(X/Y/Z) /dataNAS/people/anoopai/OpenCap/opencap-core/Examples/Data/d712a0c6-d1a0-423f-8dc2-b78d41b5c55e/MarkerData/PreAugmentation
DataRate	CameraRate	NumFrames	NumMarkers	Units	OrigDataRate	OrigDataStartFrame	OrigNumFrames
60.0	60.0	17	20	m	60.0	110	874
Frame#	Time	Neck			RShoulder			RElbow			RWrist			LShoulder			LElbow			LWrist			midHip			RHip			RKnee			RAnkle			LHip			LKnee			LAnkle			LBigToe			LSmallToe			LHeel			RBigToe			RSmallToe			RHeel			
		X1	Y1	Z1	X2	Y2	Z2	X3	Y3	Z3	X4	Y4	Z4	X5	Y5	Z5	X6	Y6	Z6	X7	Y7	Z7	X8	Y8	Z8	X9	Y9	Z9	X10	Y10	Z10	X11	Y11	Z11	X12	Y12	Z12	X13	Y13	Z13	X14	Y14	Z14	X15	Y15	Z15	X16	Y16	Z16	X17	Y17	Z17	X18	Y18	Z18	X19	Y19	Z19	X20	Y20	Z20	

110	1.8166667	0.4130700	0.7787700	-0.1045200	0.4757600	0.7718500	-0.2574400	0.4300200	0.5776000	-0.4153300	0.2937500	0.7996900	-0.4185200	0.3671800	0.7878900	0.0539900	0.2547400	0.5600300	0.1597200	0.1293000	0.7918300	0.0302500	0.3222600	0.2338200	-0.1248200	0.3608000	0.2309900	-0.2293600	0.3150900	-0.1682000	-0.2757600	0.6880700	-0.2736000	-0.0893900	0.2978100	0.2407900	-0.0161400	0.2138100	-0.1567900	-0.0003400	0.6123400	-0.2572900	0.1031600	0.6563800	-0.4502600	0.1627800	0.6559200	-0.4485000	0.1624500	0.6761400	-0.2429600	0.1036000	0.7066900	-0.4587500	-0.1349900	0.7065200	-0.4554800	-0.1344200	0.7333000	-0.2682200	-0.0461400
111	1.8333333	0.4124600	0.7786300	-0.1041900	0.4750100	0.7713800	-0.2575500	0.4281900	0.5896600	-0.4229000	0.2938200	0.8101600	-0.4213400	0.3667300	0.7879200	0.0547500	0.2531100	0.5600100	0.1600900	0.1283500	0.7909000	0.0301400	0.3222300	0.2341900	-0.1244900	0.3614200	0.2313800	-0.2288100	0.3148900	-0.1683400	-0.2758200	0.6891800	-0.2732400	-0.0887200	0.2965000	0.2408400	-0.0161700	0.2137700	-0.1563500	-0.0000900	0.6121300	-0.2568700	0.1031800	0.6571000	-0.4497400	0.1628200	0.6566600	-0.4480100	0.1625000	0.6764300	-0.2423100	0.1038500	0.7067100	-0.4588800	-0.1354600	0.7065400	-0.4557100	-0.1348800	0.7342000	-0.2683700	-0.0456700
112	1.8500000	0.4117400	0.7784000	-0.1038800	0.4739900	0.7708200	-0.2577100	0.4259900	0.6031900	-0.4310100	0.2939900	0.8222800	-0.4245300	0.3662800	0.7882500	0.0554400	0.2515200	0.5600100	0.1604600	0.1273900	0.7907400	0.0297800	0.3223000	0.2347100	-0.1241300	0.3619900	0.2316000	-0.2282500	0.3145600	-0.1685300	-0.2758400	0.6899700	-0.2728300	-0.0882100	0.2954800	0.2412900	-0.0161100	0.2139400	-0.1557000	0.0002200	0.6119100	-0.2562900	0.1031800	0.6577300	-0.4493700	0.1628600	0.6573200	-0.4476600	0.1625700	0.6765500	-0.2418200	0.1040700	0.7065600	-0.4594000	-0.1360200	0.7063900	-0.4563000	-0.1354400	0.7347800	-0.2683000	-0.0453800
113	1.8666667	0.4107000	0.7780600	-0.1037100	0.4724500	0.7699300	-0.2580500	0.4233000	0.6179800	-0.4395200	0.2942100	0.8354600	-0.4279700	0.3657500	0.7884100	0.0560600	0.2500200	0.5600600	0.1608000	0.1264500	0.7908300	0.0292500	0.3223700	0.2351400	-0.1237900	0.3623000	0.2315900	-0.2277800	0.3141900	-0.1686500	-0.2757900	0.6903100	-0.2723800	-0.0879400	0.2947200	0.2421400	-0.0159900	0.2143800	-0.1552200	0.0006300	0.6117500	-0.2557400	0.1032200	0.6582100	-0.4489800	0.1629100	0.6578000	-0.4472800	0.1626300	0.6764700	-0.2414900	0.1042200	0.7063200	-0.4603500	-0.1365400	0.7061500	-0.4573200	-0.1359700	0.7350800	-0.2683200	-0.0452200
114	1.8833333	0.4091600	0.7775500	-0.1037900	0.4701100	0.7689000	-0.2588300	0.4200200	0.6339200	-0.4482800	0.2943600	0.8503600	-0.4316200	0.3650600	0.7883900	0.0565800	0.2486100	0.5601400	0.1610700	0.1255100	0.7910700	0.0285900	0.3223200	0.2353100	-0.1234800	0.3621600	0.2316300	-0.2275700	0.3138800	-0.1686700	-0.2756300	0.6903000	-0.2720200	-0.0878800	0.2944300	0.2422700	-0.0157000	0.2149000	-0.1548000	0.0010500	0.6117900	-0.2555700	0.1034000	0.6587300	-0.4487600	0.1630800	0.6583300	-0.4470600	0.1628100	0.6764600	-0.2417800	0.1044300	0.7058600	-0.4613200	-0.1370500	0.7056800	-0.4583300	-0.1365000	0.7351100	-0.2684100	-0.0452100
115	1.9000000	0.4070700	0.7769300	-0.1042100	0.4668800	0.7676400	-0.2601800	0.4160400	0.6509500	-0.4571600	0.2944400	0.8667600	-0.4353600	0.3641900	0.7882800	0.0570000	0.2473100	0.5603100	0.1612400	0.1245200	0.7916300	0.0277600	0.3220400	0.2352600	-0.1232600	0.3615600	0.2315000	-0.2276300	0.3137200	-0.1687100	-0.2753700	0.6900100	-0.2717300	-0.0879900	0.2942000	0.2424100	-0.0153400	0.2152700	-0.1542900	0.0013900	0.6119200	-0.2556600	0.1036600	0.6592800	-0.4485600	0.1633200	0.6588900	-0.4468500	0.1630600	0.6764000	-0.2421700	0.1045600	0.7052900	-0.4622600	-0.1374800	0.7051000	-0.4593000	-0.1369300	0.7348400	-0.2684700	-0.0453700
116	1.9166667	0.4044500	0.7762300	-0.1050100	0.4627400	0.7665600	-0.2622700	0.4112500	0.6689400	-0.4659600	0.2944700	0.8848200	-0.4390900	0.3632100	0.7881100	0.0573200	0.2461000	0.5605300	0.1613000	0.1235500	0.7915700	0.0269500	0.3215500	0.2348800	-0.1231300	0.3606000	0.2309800	-0.2279200	0.3136600	-0.1686500	-0.2751100	0.6895700	-0.2715300	-0.0882000	0.2940800	0.2420600	-0.0148800	0.2156200	-0.1542400	0.0017700	0.6119300	-0.2557200	0.1038700	0.6598600	-0.4484300	0.1635800	0.6594700	-0.4467300	0.1633300	0.6763700	-0.2426400	0.1046600	0.7045600	-0.4627600	-0.1378800	0.7043800	-0.4598600	-0.1373400	0.7343800	-0.2685100	-0.0456200
117	1.9333333	0.4014400	0.7755600	-0.1061900	0.4579300	0.7655500	-0.2650700	0.4055800	0.6878500	-0.4745000	0.2945500	0.9043700	-0.4426900	0.3621900	0.7878200	0.0575800	0.2449800	0.5608200	0.1612700	0.1225300	0.7923500	0.0259300	0.3208600	0.2342500	-0.1231300	0.3593900	0.2301200	-0.2284100	0.3137400	-0.1685800	-0.2748500	0.6890300	-0.2713000	-0.0884700	0.2938700	0.2416100	-0.0144200	0.2157300	-0.1542100	0.0020100	0.6119900	-0.2561200	0.1041300	0.6603700	-0.4484200	0.1638200	0.6599700	-0.4467200	0.1635700	0.6764900	-0.2433100	0.1048300	0.7041200	-0.4633900	-0.1380300	0.7039300	-0.4604800	-0.1375100	0.7338500	-0.2686100	-0.0458900
118	1.9500000	0.3982300	0.7750100	-0.1076900	0.4527500	0.7647800	-0.2684700	0.3990800	0.7077600	-0.4825300	0.2947800	0.9253000	-0.4460600	0.3612000	0.7874700	0.0578000	0.2439300	0.5612400	0.1611700	0.1215000	0.7945700	0.0246200	0.3200600	0.2333300	-0.1232300	0.3580500	0.2291400	-0.2290900	0.3140500	-0.1684900	-0.2745800	0.6884400	-0.2710600	-0.0887500	0.2935100	0.2409300	-0.0140200	0.2157400	-0.1545200	0.0022300	0.6118800	-0.2563400	0.1042800	0.6607300	-0.4484900	0.1640200	0.6603200	-0.4467900	0.1637700	0.6763800	-0.2433200	0.1048500	0.7036400	-0.4637000	-0.1381600	0.7034600	-0.4608100	-0.1376400	0.7333100	-0.2687100	-0.0461400
119	1.9666667	0.3950500	0.7746800	-0.1094300	0.4475400	0.7646100	-0.2723200	0.3921100	0.7283700	-0.4897200	0.2953200	0.9476400	-0.4491400	0.3602900	0.7870600	0.0580100	0.2429800	0.5615800	0.1610500	0.1209400	0.7933500	0.0240500	0.3192300	0.2320600	-0.1234600	0.3567900	0.2279000	-0.2298400	0.3147000	-0.1683000	-0.2742600	0.6878900	-0.2709100	-0.0889800	0.2931000	0.2397100	-0.0137400	0.2155800	-0.1548300	0.0023300	0.6118600	-0.2566700	0.1044500	0.6608300	-0.4485000	0.1641300	0.6603900	-0.4467700	0.1638800	0.6766200	-0.2436000	0.1050600	0.7030600	-0.4639800	-0.1382700	0.7029000	-0.4611000	-0.1377400	0.7326800	-0.2685000	-0.0464400
120	1.9833333	0.3921700	0.7746500	-0.1112400	0.4428000	0.7650800	-0.2763200	0.3851200	0.7501100	-0.4958700	0.2962900	0.9707900	-0.4518500	0.3595600	0.7864100	0.0582600	0.2420800	0.5619000	0.1609100	0.1203900	0.7957100	0.0229300	0.3183800	0.2307200	-0.1238500	0.3556800	0.2266300	-0.2306500	0.3157400	-0.1680000	-0.2738500	0.6874200	-0.2708400	-0.0891500	0.2925500	0.2382500	-0.0136900	0.2154100	-0.1551600	0.0023700	0.6119300	-0.2568600	0.1046000	0.6608400	-0.4485900	0.1642600	0.6603700	-0.4468300	0.1640000	0.6770000	-0.2435400	0.1052900	0.7022900	-0.4644800	-0.1383500	0.7021500	-0.4615400	-0.1378200	0.7322000	-0.2683000	-0.0466900
121	2.0000000	0.3898400	0.7749900	-0.1129400	0.4389300	0.7662400	-0.2800800	0.3786500	0.7724700	-0.5007200	0.2977400	0.9946100	-0.4541900	0.3590400	0.7859000	0.0585000	0.2411800	0.5622200	0.1606900	0.1203300	0.7960200	0.0224200	0.3175400	0.2295300	-0.1244500	0.3547000	0.2257300	-0.2315800	0.3170900	-0.1675800	-0.2733900	0.6870500	-0.2708400	-0.0892500	0.2919700	0.2365100	-0.0139000	0.2152700	-0.1553200	0.0023000	0.6121700	-0.2568800	0.1047500	0.6608200	-0.4487000	0.1643800	0.6603200	-0.4468900	0.1641200	0.6775300	-0.2430700	0.1055100	0.7013100	-0.4653500	-0.1384000	0.7011800	-0.4622900	-0.1378800	0.7319200	-0.2680300	-0.0468700
122	2.0166667	0.3881400	0.7757400	-0.1144200	0.4360600	0.7684000	-0.2833900	0.3730900	0.7948100	-0.5040900	0.2996400	1.0191000	-0.4561700	0.3587400	0.7854600	0.0587600	0.2402400	0.5625100	0.1603600	0.1206100	0.7962900	0.0221600	0.3168500	0.2282000	-0.1252000	0.3538600	0.2252300	-0.2326100	0.3185700	-0.1670500	-0.2729800	0.6868200	-0.2709400	-0.0892900	0.2914000	0.2344900	-0.0144100	0.2153100	-0.1555900	0.0022300	0.6128100	-0.2573400	0.1050900	0.6607900	-0.4487200	0.1644900	0.6602400	-0.4468200	0.1642100	0.6785500	-0.2430200	0.1059700	0.6998000	-0.4661100	-0.1386300	0.6997400	-0.4629500	-0.1380800	0.7318200	-0.2676200	-0.0469900
123	2.0333333	0.3870000	0.7768800	-0.1156600	0.4340700	0.7711900	-0.2861700	0.3685700	0.8172700	-0.5059600	0.3019100	1.0437200	-0.4578400	0.3586400	0.7849800	0.0590300	0.2391900	0.5626000	0.1599000	0.1211200	0.7969700	0.0220500	0.3160500	0.2275700	-0.1262200	0.3531300	0.2252700	-0.2337500	0.3200000	-0.1665100	-0.2726500	0.6866700	-0.2710100	-0.0893000	0.2904900	0.2330100	-0.0152700	0.2154200	-0.1557800	0.0021200	0.6133800	-0.2575400	0.1053800	0.6607400	-0.4486300	0.1645600	0.6601400	-0.4466400	0.1642700	0.6795700	-0.2426600	0.1063800	0.6981600	-0.4673200	-0.1388100	0.6981400	-0.4639800	-0.1382600	0.7319600	-0.2671300	-0.0470100
124	2.0500000	0.3862300	0.7783600	-0.1167000	0.4326200	0.7747200	-0.2885300	0.3651600	0.8392200	-0.5063500	0.3044100	1.0681500	-0.4592400	0.3587200	0.7843400	0.0593100	0.2379900	0.5623700	0.1592900	0.1217700	0.7975000	0.0221500	0.3152100	0.2273700	-0.1274300	0.3524900	0.2259000	-0.2350000	0.3212300	-0.1660000	-0.2724600	0.6867100	-0.2712200	-0.0892600	0.2892100	0.2319700	-0.0164800	0.2155100	-0.1558600	0.0019700	0.6139600	-0.2578800	0.1057100	0.6606200	-0.4484200	0.1646100	0.6599400	-0.4463200	0.1643000	0.6804500	-0.2419800	0.1066200	0.6961600	-0.4683300	-0.1391600	0.6962100	-0.4648400	-0.1385900	0.7322700	-0.2664900	-0.0469500
125	2.0666667	0.3856200	0.7800800	-0.1175900	0.4313700	0.7787000	-0.2905700	0.3627500	0.8606100	-0.5053800	0.3070100	1.0922700	-0.4604600	0.3588400	0.7839900	0.0595300	0.2366100	0.5620500	0.1584900	0.1224200	0.7977900	0.0224700	0.3144100	0.2274200	-0.1287500	0.3519500	0.2270900	-0.2362800	0.3222400	-0.1655200	-0.2723800	0.6869100	-0.2714700	-0.0891900	0.2878800	0.2306500	-0.0179100	0.2155500	-0.1559300	0.0018000	0.6143400	-0.2580200	0.1059400	0.6604300	-0.4481900	0.1646500	0.6596500	-0.4459700	0.1643300	0.6814200	-0.2417300	0.1068400	0.6944000	-0.4698200	-0.1393300	0.6945000	-0.4661000	-0.1387800	0.7328400	-0.2658000	-0.0467700
126	2.0833333	0.3849500	0.7819300	-0.1183900	0.4300100	0.7829600	-0.2923800	0.3612000	0.8812000	-0.5032500	0.3096000	1.1155900	-0.4615300	0.3589600	0.7833300	0.0597400	0.2351800	0.5613300	0.1575900	0.1229900	0.7979000	0.0229500	0.3135500	0.2281500	-0.1302100	0.3515300	0.2287000	-0.2375500	0.3230300	-0.1650400	-0.2724100	0.6872400	-0.2718000	-0.0891100	0.2861600	0.2303600	-0.0196200	0.2154300	-0.1558800	0.0016000	0.6145500	-0.2579500	0.1060500	0.6602000	-0.4479700	0.1646900	0.6593100	-0.4456400	0.1643500	0.6819500	-0.2410600	0.1067000	0.6925900	-0.4708900	-0.1395600	0.6927800	-0.4670100	-0.1389900	0.7337500	-0.2650300	-0.0464600
